<svg viewBox="0 0 1185 266" xmlns="http://www.w3.org/2000/svg">
    <path d="M 77.5 265 c -19.5 0 -35.3 -15.4 -35.3 -34.4 v -22.1 C 18 202.7 0 181.3 0 155.9 V 55.2 C 0 25.3 24.9 1 55.7 1 h 154.7 C 241.1 1 266 25.3 266 55.2 v 100.8 c 0 29.9 -24.9 54.2 -55.7 54.2 H 145.7 c -2.8 0 -5.4 1.4 -6.8 3.6 c -10.7 17.1 -24.2 31.9 -40 43.9 c -6.2 4.8 -13.7 7.3 -21.4 7.3 z M 55.7 27.3 c -15.8 0 -28.6 12.5 -28.6 27.9 v 100.8 c 0 15.3 12.8 27.9 28.6 27.9 c 7.5 0 13.5 5.9 13.5 13.2 v 33.6 c 0 4.9 4.3 8 8.2 8 c 1.7 0 3.3 -0.6 4.7 -1.7 c 13.3 -10.1 24.6 -22.6 33.6 -36.9 c 6.3 -10 17.7 -16.2 30 -16.2 h 64.7 c 15.8 0 28.6 -12.5 28.6 -27.9 V 55.2 c 0 -15.3 -12.8 -27.9 -28.6 -27.9 H 55.7 z" />
    <text textLength="839.5" font-size="300.5" x="284.1" y="225.2" fill="#060000">
        Foniva
    </text>
  </svg>